name rise30.6535peak61.5555fall82.9339.mot
datacolumns 19
datarows 12
range 9.55996000000000 9.57829400000000
endheader
time	ground_force1_vx	ground_force1_vy	ground_force1_vz	ground_force1_px	ground_force1_py	ground_force1_pz	ground_force2_vx	ground_force2_vy	ground_force2_vz	ground_force2_px	ground_force2_py	ground_force2_pz	ground_torque1_x	ground_torque1_y	ground_torque1_z	ground_torque2_x	ground_torque2_y	ground_torque2_z	
9.55996000000000	-37.49940300000000	789.77653399999997	55.36873700000000	0.11021000000000	0.00000000000000	0.10229500000000	-6.55430800000000	52.87055400000000	6.05817700000000	0.34543600000000	0.00000000000000	-0.08966100000000	0.00000000000000	19.21761200000000	0.00000000000000	0.00000000000000	3.28750300000000	0.00000000000000	
9.56162200000000	-37.51582900000000	787.42915500000004	55.17402300000000	0.10986500000000	0.00000000000000	0.10216700000000	-6.86491600000000	59.31465400000000	6.56891200000000	0.35008300000000	0.00000000000000	-0.08989600000000	0.00000000000000	19.08095000000000	0.00000000000000	0.00000000000000	3.65233100000000	0.00000000000000	
9.56329200000000	-37.54635300000000	784.97789599999999	54.96217400000000	0.10953200000000	0.00000000000000	0.10203400000000	-7.04459800000000	65.59894100000000	7.00724700000000	0.35434700000000	0.00000000000000	-0.09012300000000	0.00000000000000	18.94523400000000	0.00000000000000	0.00000000000000	3.99191700000000	0.00000000000000	
9.56495500000000	-37.59204200000000	782.42287599999997	54.73301100000000	0.10920900000000	0.00000000000000	0.10189700000000	-7.09023300000000	71.68191800000000	7.36848900000000	0.35826600000000	0.00000000000000	-0.09034400000000	0.00000000000000	18.81068500000000	0.00000000000000	0.00000000000000	4.30211700000000	0.00000000000000	
9.56663000000000	-37.65392800000000	779.76421000000005	54.48637800000000	0.10889700000000	0.00000000000000	0.10175600000000	-7.00421100000000	77.54734400000000	7.65188700000000	0.36187800000000	0.00000000000000	-0.09056000000000	0.00000000000000	18.67751700000000	0.00000000000000	0.00000000000000	4.58078700000000	0.00000000000000	
9.56828900000000	-37.73299600000000	777.00200199999995	54.22214600000000	0.10859400000000	0.00000000000000	0.10160900000000	-6.79350200000000	83.20163300000000	7.86007800000000	0.36521000000000	0.00000000000000	-0.09077400000000	0.00000000000000	18.54593100000000	0.00000000000000	0.00000000000000	4.82760300000000	0.00000000000000	
9.56995900000000	-37.83018700000000	774.13634000000002	53.94021000000000	0.10830000000000	0.00000000000000	0.10145900000000	-6.46852000000000	88.66984900000000	7.99834900000000	0.36828800000000	0.00000000000000	-0.09098500000000	0.00000000000000	18.41611900000000	0.00000000000000	0.00000000000000	5.04375300000000	0.00000000000000	
9.57162400000000	-37.94638400000000	771.16729499999997	53.64049200000000	0.10801400000000	0.00000000000000	0.10130400000000	-6.04189100000000	93.99084700000000	8.07380900000000	0.37113400000000	0.00000000000000	-0.09119400000000	0.00000000000000	18.28826100000000	0.00000000000000	0.00000000000000	5.23156500000000	0.00000000000000	
9.57329500000000	-38.08241200000000	768.09491200000002	53.32294000000000	0.10773500000000	0.00000000000000	0.10114400000000	-5.52725700000000	99.21213400000001	8.09456000000000	0.37376600000000	0.00000000000000	-0.09140300000000	0.00000000000000	18.16252400000000	0.00000000000000	0.00000000000000	5.39410500000000	0.00000000000000	
9.57496000000000	-38.23903300000000	764.91920600000003	52.98753100000000	0.10746200000000	0.00000000000000	0.10098000000000	-4.93820700000000	104.38491000000000	8.06892100000000	0.37620200000000	0.00000000000000	-0.09161200000000	0.00000000000000	18.03906200000000	0.00000000000000	0.00000000000000	5.53477700000000	0.00000000000000	
9.57662800000000	-38.41693500000000	761.64016300000003	52.63426700000000	0.10719300000000	0.00000000000000	0.10081200000000	-4.28739100000000	109.55964800000000	8.00477800000000	0.37845500000000	0.00000000000000	-0.09182100000000	0.00000000000000	17.91801600000000	0.00000000000000	0.00000000000000	5.65697400000000	0.00000000000000	
9.57829400000000	-38.61673600000000	758.25773200000003	52.26317800000000	0.10692900000000	0.00000000000000	0.10063900000000	-3.58586000000000	114.78247200000000	7.90907200000000	0.38053800000000	0.00000000000000	-0.09203100000000	0.00000000000000	17.79951200000000	0.00000000000000	0.00000000000000	5.76378900000000	0.00000000000000	
